<svg xmlns="http://www.w3.org/2000/svg" width="128" height="128" viewBox="0 0 128 128" fill="none" stroke-linejoin="round" stroke-linecap="round" role="img">
<defs>
  <linearGradient id="roof" x1="0" y1="0" x2="1" y2="1"><stop stop-color="#a6b9bf"/><stop offset=".48" stop-color="#5a7882"/><stop offset="1" stop-color="#253f4c"/></linearGradient>
  <linearGradient id="roofDark" x1="0" y1="0" x2="1" y2="1"><stop stop-color="#697e88"/><stop offset="1" stop-color="#213842"/></linearGradient>
  <linearGradient id="left" x1="0" y1="0" x2="0" y2="1"><stop stop-color="#365663"/><stop offset="1" stop-color="#172a34"/></linearGradient>
  <linearGradient id="right" x1="0" y1="0" x2="0" y2="1"><stop stop-color="#2b4754"/><stop offset="1" stop-color="#0d222d"/></linearGradient>
  <linearGradient id="metal" x1="0" y1="0" x2="1" y2="1"><stop stop-color="#d9e5e3"/><stop offset=".43" stop-color="#819aa2"/><stop offset="1" stop-color="#354e5a"/></linearGradient>
  <linearGradient id="steel" x1="0" y1="0" x2="1" y2="1"><stop stop-color="#95adb6"/><stop offset=".45" stop-color="#52707e"/><stop offset="1" stop-color="#263f4c"/></linearGradient>
  <linearGradient id="glass" x1="0" y1="0" x2="1" y2="1"><stop stop-color="#b7faff"/><stop offset=".32" stop-color="#58d5de"/><stop offset="1" stop-color="#127789"/></linearGradient>
  <linearGradient id="cyan" x1="0" y1="0" x2="1" y2="1"><stop stop-color="#bdfaff"/><stop offset=".5" stop-color="#49dce4"/><stop offset="1" stop-color="#1798b0"/></linearGradient>
  <linearGradient id="gold" x1="0" y1="0" x2="1" y2="1"><stop stop-color="#ffe8a1"/><stop offset=".45" stop-color="#f4b85a"/><stop offset="1" stop-color="#ba6e28"/></linearGradient>
  <linearGradient id="ore" x1="0" y1="0" x2="1" y2="1"><stop stop-color="#fff0b6"/><stop offset=".48" stop-color="#f6b753"/><stop offset="1" stop-color="#98522e"/></linearGradient>
  <radialGradient id="glow"><stop stop-color="#8ff7fb" stop-opacity=".74"/><stop offset="1" stop-color="#39bfd0" stop-opacity="0"/></radialGradient>
  <filter id="blur"><feGaussianBlur stdDeviation="3"/></filter>
  <filter id="softGlow" x="-80%" y="-80%" width="260%" height="260%"><feGaussianBlur stdDeviation="2.2" result="b"/><feMerge><feMergeNode in="b"/><feMergeNode in="SourceGraphic"/></feMerge></filter>
  <clipPath id="roofClip"><path d="M64 24 111 49 64 76 17 49Z"/></clipPath>
</defs>
<g><ellipse cx="64" cy="106" rx="43" ry="11" fill="#061821" opacity=".48" filter="url(#blur)"/>
      <path d="M17 49 64 76 64 101 17 74Z" fill="url(#left)" stroke="#12242c" stroke-width="2"/>
      <path d="M64 76 111 49 111 74 64 101Z" fill="url(#right)" stroke="#10232c" stroke-width="2"/>
      <path d="M64 24 111 49 64 76 17 49Z" fill="url(#roofDark)" stroke="#172c36" stroke-width="2.5"/>
      <path d="m20 53 44 25 44-25" stroke="#7ba7b0" stroke-opacity=".54" stroke-width="1.5"/>
      <path d="M23 68 59 89M69 90l35-21" stroke="#52cbd3" stroke-opacity=".42" stroke-width="2.2"/>
      <path d="M26 59v12m8-8v13m8-8v13m8-8v13M78 87v-13m8 8V69m8 8V64m8 8V59" stroke="#7896a0" stroke-opacity=".42" stroke-width="1.5"/>
      <circle cx="64" cy="95" r="2.5" fill="url(#cyan)" filter="url(#softGlow)"/>

  <path d="M47 45 64 35 81 45v26L64 81 47 71Z" fill="url(#steel)" stroke="#203b46" stroke-width="2.5"/>
  <path d="M47 45 64 55 81 45 64 35Z" fill="url(#metal)" stroke="#254652" stroke-width="2"/>
  <path d="M52 33 64 27 76 33v19L64 59 52 52Z" fill="#263f4b" stroke="#a2bdc2" stroke-width="2"/>
  <path d="M51 36 41 18l8-4 14 23m14-1 10-18-8-4-14 23" fill="url(#metal)" stroke="#1b3540" stroke-width="2.5"/>
  <path d="M40 18 49 14m30 0 9 4" stroke="#122936" stroke-width="4"/>
  <path d="M56 39 64 34l8 5-8 5Z" fill="url(#glass)"/>
  <path d="M54 65 64 71 74 65" stroke="#59dbe2" stroke-width="2.5"/>
  <path d="M29 65 43 73m56-8-14 8" stroke="#f2c470" stroke-width="2.5"/>
</g></svg>
