<svg xmlns="http://www.w3.org/2000/svg" width="128" height="128" viewBox="0 0 128 128" fill="none" stroke-linejoin="round" stroke-linecap="round" role="img">
<defs>
  <linearGradient id="roof" x1="0" y1="0" x2="1" y2="1"><stop stop-color="#a6b9bf"/><stop offset=".48" stop-color="#5a7882"/><stop offset="1" stop-color="#253f4c"/></linearGradient>
  <linearGradient id="roofDark" x1="0" y1="0" x2="1" y2="1"><stop stop-color="#697e88"/><stop offset="1" stop-color="#213842"/></linearGradient>
  <linearGradient id="left" x1="0" y1="0" x2="0" y2="1"><stop stop-color="#365663"/><stop offset="1" stop-color="#172a34"/></linearGradient>
  <linearGradient id="right" x1="0" y1="0" x2="0" y2="1"><stop stop-color="#2b4754"/><stop offset="1" stop-color="#0d222d"/></linearGradient>
  <linearGradient id="metal" x1="0" y1="0" x2="1" y2="1"><stop stop-color="#d9e5e3"/><stop offset=".43" stop-color="#819aa2"/><stop offset="1" stop-color="#354e5a"/></linearGradient>
  <linearGradient id="steel" x1="0" y1="0" x2="1" y2="1"><stop stop-color="#95adb6"/><stop offset=".45" stop-color="#52707e"/><stop offset="1" stop-color="#263f4c"/></linearGradient>
  <linearGradient id="glass" x1="0" y1="0" x2="1" y2="1"><stop stop-color="#b7faff"/><stop offset=".32" stop-color="#58d5de"/><stop offset="1" stop-color="#127789"/></linearGradient>
  <linearGradient id="cyan" x1="0" y1="0" x2="1" y2="1"><stop stop-color="#bdfaff"/><stop offset=".5" stop-color="#49dce4"/><stop offset="1" stop-color="#1798b0"/></linearGradient>
  <linearGradient id="gold" x1="0" y1="0" x2="1" y2="1"><stop stop-color="#ffe8a1"/><stop offset=".45" stop-color="#f4b85a"/><stop offset="1" stop-color="#ba6e28"/></linearGradient>
  <linearGradient id="ore" x1="0" y1="0" x2="1" y2="1"><stop stop-color="#fff0b6"/><stop offset=".48" stop-color="#f6b753"/><stop offset="1" stop-color="#98522e"/></linearGradient>
  <radialGradient id="glow"><stop stop-color="#8ff7fb" stop-opacity=".74"/><stop offset="1" stop-color="#39bfd0" stop-opacity="0"/></radialGradient>
  <filter id="blur"><feGaussianBlur stdDeviation="3"/></filter>
  <filter id="softGlow" x="-80%" y="-80%" width="260%" height="260%"><feGaussianBlur stdDeviation="2.2" result="b"/><feMerge><feMergeNode in="b"/><feMergeNode in="SourceGraphic"/></feMerge></filter>
  <clipPath id="roofClip"><path d="M64 24 111 49 64 76 17 49Z"/></clipPath>
</defs>
<g><ellipse cx="64" cy="94" rx="37" ry="13" fill="#07161e" opacity=".5" filter="url(#blur)"/>
      <path d="M46 78 40 99l12 4 10-21m20-4 6 21-12 4-10-21" fill="#263f4a" stroke="#142b35" stroke-width="2"/>
      <path d="M42 98 39 108l14 2 3-9m27-3 6 10-14 2-3-9" fill="#1a303b" stroke="#5e7a85" stroke-width="2"/>
      <path d="M46 46 34 57l5 20 13-4 9-13m21-14 12 11-5 20-13-4-9-13" fill="url(#steel)" stroke="#1a3946" stroke-width="2.5"/>
      <path d="M47 49 64 42 81 49 82 82 64 90 46 82Z" fill="url(#steel)" stroke="#183943" stroke-width="2.5"/>
      <path d="M49 52 64 46 79 52l-15 9Z" fill="#264753" opacity=".75"/>
      <path d="M54 51V34h20v17" fill="url(#steel)" stroke="#1a3542" stroke-width="2"/>
      <ellipse cx="64" cy="34" rx="17" ry="13" fill="url(#metal)" stroke="#1d3945" stroke-width="2.5"/>
      <path d="M52 34q12 12 24 0" stroke="#2b5561" stroke-width="4"/><path d="M54 27q10-9 20 0" stroke="#d6e9e6" stroke-opacity=".8" stroke-width="2"/>
      <path d="M52 76 64 82 76 76" stroke="#bdd0ca" stroke-width="2"/>
      <path d="m57 66 7-5 7 5-7 5Z" fill="url(#cyan)"/><path d="M75 45 91 32l6 5-17 19Z" fill="url(#metal)" stroke="#1c3845" stroke-width="2"/><path d="m95 36 8-8" stroke="#c8e5e3" stroke-width="3"/>
    </g></svg>
