<svg xmlns="http://www.w3.org/2000/svg" width="128" height="128" viewBox="0 0 128 128" fill="none" stroke-linejoin="round" stroke-linecap="round" role="img">
<defs>
  <linearGradient id="roof" x1="0" y1="0" x2="1" y2="1"><stop stop-color="#a6b9bf"/><stop offset=".48" stop-color="#5a7882"/><stop offset="1" stop-color="#253f4c"/></linearGradient>
  <linearGradient id="roofDark" x1="0" y1="0" x2="1" y2="1"><stop stop-color="#697e88"/><stop offset="1" stop-color="#213842"/></linearGradient>
  <linearGradient id="left" x1="0" y1="0" x2="0" y2="1"><stop stop-color="#365663"/><stop offset="1" stop-color="#172a34"/></linearGradient>
  <linearGradient id="right" x1="0" y1="0" x2="0" y2="1"><stop stop-color="#2b4754"/><stop offset="1" stop-color="#0d222d"/></linearGradient>
  <linearGradient id="metal" x1="0" y1="0" x2="1" y2="1"><stop stop-color="#d9e5e3"/><stop offset=".43" stop-color="#819aa2"/><stop offset="1" stop-color="#354e5a"/></linearGradient>
  <linearGradient id="steel" x1="0" y1="0" x2="1" y2="1"><stop stop-color="#95adb6"/><stop offset=".45" stop-color="#52707e"/><stop offset="1" stop-color="#263f4c"/></linearGradient>
  <linearGradient id="glass" x1="0" y1="0" x2="1" y2="1"><stop stop-color="#b7faff"/><stop offset=".32" stop-color="#58d5de"/><stop offset="1" stop-color="#127789"/></linearGradient>
  <linearGradient id="cyan" x1="0" y1="0" x2="1" y2="1"><stop stop-color="#bdfaff"/><stop offset=".5" stop-color="#49dce4"/><stop offset="1" stop-color="#1798b0"/></linearGradient>
  <linearGradient id="gold" x1="0" y1="0" x2="1" y2="1"><stop stop-color="#ffe8a1"/><stop offset=".45" stop-color="#f4b85a"/><stop offset="1" stop-color="#ba6e28"/></linearGradient>
  <linearGradient id="ore" x1="0" y1="0" x2="1" y2="1"><stop stop-color="#fff0b6"/><stop offset=".48" stop-color="#f6b753"/><stop offset="1" stop-color="#98522e"/></linearGradient>
  <radialGradient id="glow"><stop stop-color="#8ff7fb" stop-opacity=".74"/><stop offset="1" stop-color="#39bfd0" stop-opacity="0"/></radialGradient>
  <filter id="blur"><feGaussianBlur stdDeviation="3"/></filter>
  <filter id="softGlow" x="-80%" y="-80%" width="260%" height="260%"><feGaussianBlur stdDeviation="2.2" result="b"/><feMerge><feMergeNode in="b"/><feMergeNode in="SourceGraphic"/></feMerge></filter>
  <clipPath id="roofClip"><path d="M64 24 111 49 64 76 17 49Z"/></clipPath>
</defs>
<g><ellipse cx="64" cy="106" rx="43" ry="11" fill="#061821" opacity=".48" filter="url(#blur)"/>
      <path d="M17 49 64 76 64 101 17 74Z" fill="url(#left)" stroke="#12242c" stroke-width="2"/>
      <path d="M64 76 111 49 111 74 64 101Z" fill="url(#right)" stroke="#10232c" stroke-width="2"/>
      <path d="M64 24 111 49 64 76 17 49Z" fill="url(#roofDark)" stroke="#172c36" stroke-width="2.5"/>
      <path d="m20 53 44 25 44-25" stroke="#7ba7b0" stroke-opacity=".54" stroke-width="1.5"/>
      <path d="M23 68 59 89M69 90l35-21" stroke="#52cbd3" stroke-opacity=".42" stroke-width="2.2"/>
      <path d="M26 59v12m8-8v13m8-8v13m8-8v13M78 87v-13m8 8V69m8 8V64m8 8V59" stroke="#7896a0" stroke-opacity=".42" stroke-width="1.5"/>
      <circle cx="64" cy="95" r="2.5" fill="url(#cyan)" filter="url(#softGlow)"/>

  <path d="M49 49 64 41 79 49v18L64 75 49 67Z" fill="url(#metal)" stroke="#1a3540" stroke-width="2"/>
  <path d="M64 53V30" stroke="#d4e5e5" stroke-width="4"/>
  <path d="M31 28q30 37 64-1-14 28-32 31Q45 54 31 28Z" fill="url(#metal)" stroke="#203e49" stroke-width="2.5"/>
  <path d="M35 29q27 29 56-1" stroke="#b4e4e4" stroke-width="2" opacity=".8"/>
  <path d="m38 31 27-16 24 14" stroke="#405b67" stroke-width="2"/>
  <path d="M64 31 73 12" stroke="#d9eeee" stroke-width="2.5"/><circle cx="74" cy="11" r="3" fill="#d4ffff" filter="url(#softGlow)"/><circle cx="74" cy="11" r="7" stroke="#56e6ec" stroke-opacity=".42"/>
  <path d="M52 65 64 71 76 65" stroke="#59dfe6" stroke-width="2.5"/>
  <circle cx="33" cy="52" r="3" fill="url(#cyan)" filter="url(#softGlow)"/>
</g></svg>
